<svg id="svg" xmlns="http://www.w3.org/2000/svg" xmlns:xlink="http://www.w3.org/1999/xlink" width="400" height="379.2828685258964" viewBox="0, 0, 400,379.2828685258964" version="1.1"><g id="svgg"><path id="path0" d="M178.486 0.915 C 138.823 7.705,125.511 23.525,117.166 73.785 C 116.381 78.509,115.566 79.661,113.459 79.025 C 98.812 74.604,42.193 73.427,29.235 77.275 C -16.587 90.883,-6.973 160.329,46.722 203.587 C 59.144 213.595,92.902 238.915,98.403 242.350 C 101.098 244.033,102.024 246.654,102.843 254.908 C 105.841 285.118,114.681 302.008,133.393 313.276 C 138.340 316.255,144.407 320.492,146.877 322.692 C 155.360 330.251,189.130 327.208,210.012 317.002 C 241.040 301.838,255.918 278.900,259.543 240.637 C 261.652 218.380,264.639 212.579,270.029 220.275 C 274.059 226.028,273.296 218.838,269.156 212.048 C 265.924 206.745,265.911 206.501,268.764 204.551 C 270.386 203.443,273.300 200.933,275.239 198.975 C 278.632 195.547,278.882 195.520,281.898 198.249 C 283.863 200.027,286.225 200.705,288.235 200.067 C 294.275 198.150,297.614 212.439,292.177 216.936 C 288.766 219.758,282.107 234.026,282.087 238.557 C 282.066 243.402,275.568 250.487,269.171 252.641 L 263.830 254.439 263.787 268.306 L 263.745 282.173 270.348 285.369 C 276.102 288.155,278.770 291.741,278.863 296.813 C 278.897 298.712,271.744 298.198,269.701 296.155 C 268.292 294.746,267.434 295.390,266.123 298.837 C 259.694 315.747,233.322 343.813,203.312 365.684 C 193.960 372.499,186.521 378.268,186.780 378.504 C 187.039 378.740,234.582 378.474,292.430 377.913 L 397.610 376.892 377.689 371.798 C 323.528 357.945,308.367 351.236,304.576 339.442 C 303.589 336.375,300.274 331.135,297.208 327.800 C 291.094 321.149,290.804 319.987,293.395 312.555 C 295.285 307.132,298.966 304.382,304.334 304.382 C 307.007 304.382,307.392 303.820,306.246 301.594 C 303.499 296.259,302.793 268.116,305.352 265.992 C 307.349 264.335,307.331 263.732,305.219 261.399 C 300.460 256.140,302.223 252.108,311.952 246.001 C 361.399 214.959,377.360 191.613,378.924 148.043 C 380.954 91.509,353.593 66.696,286.472 64.202 L 261.391 63.270 250.486 46.376 C 244.488 37.084,237.980 26.814,236.024 23.552 C 225.587 6.155,202.027 -3.114,178.486 0.915 M175.230 141.746 C 177.969 145.204,181.645 148.489,183.398 149.045 C 185.190 149.614,186.966 151.959,187.454 154.403 C 188.298 158.620,188.592 158.730,197.349 158.105 C 202.313 157.751,210.195 158.160,214.865 159.014 C 219.534 159.867,222.761 160.076,222.036 159.478 C 221.311 158.880,218.028 156.421,214.741 154.014 C 203.920 146.091,209.409 139.557,221.593 145.858 L 226.295 148.289 226.295 142.670 C 226.295 139.580,227.048 137.052,227.968 137.052 C 231.569 137.052,238.509 141.783,240.132 145.343 C 241.091 147.449,243.379 149.209,245.350 149.357 C 250.539 149.748,252.934 152.383,255.645 160.680 C 261.330 178.085,260.291 190.880,252.450 200.005 C 250.160 202.670,248.606 206.495,248.606 209.462 C 248.606 224.325,239.640 241.874,227.182 251.394 C 218.127 258.315,217.613 258.161,210.163 246.279 C 206.612 240.616,202.335 235.548,200.657 235.015 C 198.979 234.483,196.881 232.692,195.995 231.036 C 195.109 229.380,191.908 227.561,188.882 226.994 C 185.856 226.426,182.550 224.961,181.535 223.738 C 180.520 222.515,178.420 221.514,176.868 221.514 C 175.316 221.514,173.633 220.438,173.129 219.124 C 172.624 217.809,170.576 216.722,168.576 216.709 C 164.080 216.678,162.437 215.534,158.891 209.960 C 157.357 207.550,155.083 205.578,153.838 205.578 C 152.594 205.578,150.638 204.261,149.493 202.653 C 145.627 197.223,138.034 201.922,141.105 207.843 C 143.915 213.259,143.747 213.542,129.635 227.131 C 122.943 233.575,118.325 239.760,115.592 245.940 C 107.435 264.384,104.670 251.616,105.604 199.822 C 106.388 156.323,106.693 154.289,112.884 151.382 C 122.627 146.808,127.490 146.602,127.490 150.765 C 127.490 153.412,126.589 154.582,124.550 154.582 C 120.267 154.582,116.343 159.670,115.202 166.703 L 114.205 172.846 119.326 168.537 C 132.747 157.244,142.377 158.919,143.107 172.675 C 143.370 177.624,144.250 181.673,145.063 181.673 C 147.528 181.673,151.665 174.120,151.344 170.208 C 150.755 163.050,151.463 161.221,157.769 153.589 C 161.596 148.958,164.143 144.218,164.143 141.729 C 164.143 133.304,168.549 133.310,175.230 141.746 M160.921 203.145 C 163.204 205.896,172.545 207.957,176.263 206.531 C 181.494 204.523,175.435 200.797,166.940 200.797 C 160.102 200.797,159.249 201.130,160.921 203.145 M175.299 243.825 C 180.786 245.578,187.047 247.012,189.212 247.012 C 196.386 247.012,208.904 263.352,204.835 267.405 C 201.904 270.324,172.962 268.343,167.331 264.838 C 160.501 260.588,158.107 260.538,152.988 264.542 C 148.533 268.026,134.318 268.937,128.979 266.079 C 121.312 261.976,126.877 247.048,136.104 246.970 C 138.816 246.947,143.904 245.571,147.410 243.912 C 155.770 239.956,163.117 239.933,175.299 243.825 M114.741 356.234 L 93.227 377.646 121.700 377.668 C 148.067 377.688,150.113 377.483,149.366 374.900 C 148.922 373.367,146.212 363.685,143.343 353.386 C 140.474 343.088,137.705 334.698,137.191 334.742 C 136.676 334.787,126.574 344.458,114.741 356.234 M192.848 345.534 C 190.668 347.570,186.903 349.631,184.482 350.116 C 180.420 350.928,177.297 361.753,181.124 361.753 C 183.660 361.753,193.056 353.187,195.318 348.814 C 198.660 342.350,197.668 341.034,192.848 345.534 " stroke="none" fill="#000000" fill-rule="evenodd"></path></g></svg>