 <svg version="1.0" xmlns="http://www.w3.org/2000/svg" width="700.000000pt" height="1431.000000pt" viewBox="0 0 700.000000 1431.000000" preserveAspectRatio="xMidYMid meet">
<metadata>
Created by potrace 1.12, written by Peter Selinger 2001-2015
</metadata>
<g transform="translate(0.000000,1431.000000) scale(0.100000,-0.100000)" fill="#FAFAFA" stroke="none">
<path d="M1632 14183 c-13 -3 -301 -283 -702 -684 -515 -516 -683 -689 -692
-717 -10 -30 -14 -764 -16 -3712 -3 -3786 -4 -3736 34 -3810 7 -14 1164 -1176
2572 -2583 2175 -2175 2564 -2559 2594 -2566 l36 -8 682 682 c376 376 692 697
703 715 18 28 18 34 6 57 -8 15 -843 855 -1857 1867 -1706 1705 -1842 1843
-1842 1874 0 26 6 37 30 50 16 9 35 27 42 40 6 13 24 30 39 39 15 9 33 27 40
41 7 13 25 30 39 37 14 7 32 24 39 37 7 14 25 32 40 41 15 9 33 27 40 40 7 13
25 31 40 40 15 9 33 27 41 41 7 14 17 26 20 26 6 0 66 58 151 148 9 9 27 27
40 39 13 12 31 30 40 40 9 10 43 43 75 74 33 31 66 65 75 75 10 11 28 28 40
40 13 11 31 29 40 40 10 10 28 28 40 40 13 11 31 29 40 40 10 10 28 28 40 40
13 11 31 28 39 37 13 16 118 121 161 163 30 29 66 66 82 83 8 9 41 41 73 72
33 31 66 65 75 75 10 11 28 28 40 40 13 11 31 29 40 40 10 10 28 28 40 40 13
11 31 28 39 37 8 10 62 65 120 122 58 58 110 109 115 115 6 6 24 23 40 39 17
16 35 35 41 42 7 8 40 42 75 75 35 34 71 70 80 80 10 11 28 28 40 40 13 11 31
29 40 40 10 10 28 28 40 40 13 11 31 29 40 40 10 10 28 28 40 40 13 11 31 28
39 37 12 14 102 104 159 161 6 6 61 61 121 121 60 61 113 113 117 118 5 4 163
162 353 352 190 190 351 351 358 358 7 6 67 66 135 133 67 66 130 123 140 127
10 4 17 17 17 33 0 22 -38 66 -194 223 -515 519 -4946 4945 -4957 4952 -15 9
-19 9 -57 2z m556 -3406 c1241 -1241 1742 -1748 1742 -1764 0 -18 -113 -141
-207 -224 -10 -10 -27 -28 -39 -40 -11 -13 -29 -31 -40 -40 -10 -10 -29 -28
-41 -40 -12 -13 -30 -31 -40 -40 -10 -9 -27 -27 -39 -40 -11 -13 -29 -31 -40
-40 -10 -9 -45 -43 -76 -75 -87 -91 -101 -105 -127 -128 -12 -11 -30 -30 -40
-40 -9 -11 -27 -29 -40 -40 -12 -12 -30 -30 -40 -40 -9 -11 -26 -29 -39 -40
-12 -12 -46 -45 -75 -75 -29 -29 -63 -64 -76 -76 -13 -13 -30 -29 -38 -38 -9
-8 -27 -26 -40 -40 -14 -13 -33 -31 -42 -40 -9 -8 -41 -41 -72 -73 -31 -33
-65 -66 -75 -75 -11 -10 -28 -28 -40 -40 -11 -13 -29 -31 -40 -40 -10 -10 -29
-28 -40 -40 -12 -13 -32 -34 -45 -47 -38 -37 -161 -159 -190 -190 -9 -9 -27
-27 -40 -39 -13 -12 -31 -30 -40 -40 -9 -10 -27 -27 -40 -39 -13 -11 -31 -29
-40 -40 -9 -10 -25 -26 -35 -35 -10 -10 -28 -28 -40 -40 -11 -13 -29 -31 -40
-40 -10 -10 -28 -28 -40 -40 -11 -13 -29 -31 -40 -40 -10 -10 -28 -28 -40 -40
-11 -13 -29 -31 -40 -40 -10 -10 -29 -28 -41 -40 -12 -13 -30 -31 -40 -40 -10
-9 -25 -25 -34 -35 -10 -10 -28 -29 -40 -41 -13 -12 -31 -30 -40 -40 -9 -10
-27 -27 -40 -39 -13 -11 -31 -28 -39 -38 -21 -24 -140 -144 -169 -170 -12 -11
-30 -30 -40 -40 -9 -11 -27 -29 -40 -40 -12 -12 -30 -30 -40 -40 -9 -10 -24
-26 -34 -35 -10 -9 -28 -27 -40 -40 -12 -13 -29 -30 -38 -38 -21 -20 -132
-131 -152 -152 -8 -9 -25 -25 -38 -37 -13 -11 -31 -29 -40 -40 -10 -10 -43
-45 -75 -76 -33 -32 -69 -68 -81 -80 -12 -13 -30 -30 -40 -39 -10 -9 -27 -27
-39 -40 -11 -13 -29 -31 -40 -40 -10 -10 -29 -28 -41 -40 -27 -29 -51 -53 -81
-82 -68 -64 -132 -131 -132 -139 0 -4 -11 -15 -25 -24 -24 -16 -27 -16 -45 1
-20 18 -20 46 -20 3489 0 3126 2 3474 16 3494 8 12 21 22 27 22 7 0 796 -784
1755 -1743z"></path>
</g>
</svg>